HIERARCHY
ROOT joint_Root
{
	OFFSET 0.0 0.0 0.0
	CHANNELS 6 Xposition Yposition Zposition Zrotation Xrotation Yrotation 
	JOINT Hips
	{
		OFFSET -17.1583 93.1646 452.98
		CHANNELS 6 Xposition Yposition Zposition Zrotation Xrotation Yrotation 
		JOINT Spine
		{
			OFFSET 15.7357 0.0 0.0
			CHANNELS 6 Xposition Yposition Zposition Zrotation Xrotation Yrotation 
			JOINT Chest
			{
				OFFSET 8.98455 -0.406207 0.0
				CHANNELS 6 Xposition Yposition Zposition Zrotation Xrotation Yrotation 
				JOINT Neck
				{
					OFFSET 16.3773 0.0 0.0
					CHANNELS 6 Xposition Yposition Zposition Zrotation Xrotation Yrotation 
					JOINT Head
					{
						OFFSET 6.45672 0.0 0.0
						CHANNELS 6 Xposition Yposition Zposition Zrotation Xrotation Yrotation 
						End Site
						{
							OFFSET 0.0 0.0 0.0
						}
					}
				}
				JOINT Shoulder_L
				{
					OFFSET 12.9942 -0.242716 4.98039
					CHANNELS 6 Xposition Yposition Zposition Zrotation Xrotation Yrotation 
					JOINT UpperArm_L
					{
						OFFSET 5.34809 0.0 0.0
						CHANNELS 6 Xposition Yposition Zposition Zrotation Xrotation Yrotation 
						JOINT LowerArm_L
						{
							OFFSET 24.3286 1.87007e-05 0.0
							CHANNELS 6 Xposition Yposition Zposition Zrotation Xrotation Yrotation 
							JOINT Hand_L
							{
								OFFSET 22.2916 0.0 0.0
								CHANNELS 6 Xposition Yposition Zposition Zrotation Xrotation Yrotation 
								End Site
								{
									OFFSET 0.0 0.0 0.0
								}
							}
						}
					}
				}
				JOINT Shoulder_R
				{
					OFFSET 12.9945 -0.242716 -4.98039
					CHANNELS 6 Xposition Yposition Zposition Zrotation Xrotation Yrotation 
					JOINT UpperArm_R
					{
						OFFSET -5.34813 0.0 0.0
						CHANNELS 6 Xposition Yposition Zposition Zrotation Xrotation Yrotation 
						JOINT LowerArm_R
						{
							OFFSET -24.3289 0.000322201 0.0
							CHANNELS 6 Xposition Yposition Zposition Zrotation Xrotation Yrotation 
							JOINT Hand_R
							{
								OFFSET -22.2915 -0.000108084 0.0
								CHANNELS 6 Xposition Yposition Zposition Zrotation Xrotation Yrotation 
								End Site
								{
									OFFSET 0.0 0.0 0.0
								}
							}
						}
					}
				}
			}
		}
		JOINT UpperLeg_L
		{
			OFFSET -2.19248 -6.46944 0.0
			CHANNELS 6 Xposition Yposition Zposition Zrotation Xrotation Yrotation 
			JOINT LowerLeg_L
			{
				OFFSET 39.0811 0.0 -1.23785e-05
				CHANNELS 6 Xposition Yposition Zposition Zrotation Xrotation Yrotation 
				JOINT Foot_L
				{
					OFFSET 40.9854 0.0 -1.26872e-05
					CHANNELS 6 Xposition Yposition Zposition Zrotation Xrotation Yrotation 
					JOINT Toes_L
					{
						OFFSET 11.7543 0.0 0.0
						CHANNELS 6 Xposition Yposition Zposition Zrotation Xrotation Yrotation 
						End Site
						{
							OFFSET 0.0 0.0 0.0
						}
					}
				}
			}
		}
		JOINT UpperLeg_R
		{
			OFFSET -2.19251 6.46944 0.0
			CHANNELS 6 Xposition Yposition Zposition Zrotation Xrotation Yrotation 
			JOINT LowerLeg_R
			{
				OFFSET -39.0811 -0.00228153 -0.0401928
				CHANNELS 6 Xposition Yposition Zposition Zrotation Xrotation Yrotation 
				JOINT Foot_R
				{
					OFFSET -40.9854 0.0 0.0
					CHANNELS 6 Xposition Yposition Zposition Zrotation Xrotation Yrotation 
					JOINT Toes_R
					{
						OFFSET -11.7543 0.0 0.0
						CHANNELS 6 Xposition Yposition Zposition Zrotation Xrotation Yrotation 
						End Site
						{
							OFFSET 0.0 0.0 0.0
						}
					}
				}
			}
		}
	}
}
MOTION
Frames:	8
Frame Time:	0.0333333
0.000000 0.000000 0.000000 0.000000 0.000000 -0.000000 -5.495590 90.244900 28.903100 -94.753900 9.650470 -174.745000 15.735700 0.000005 -0.000001 104.232000 86.375800 -105.452000 8.984550 -0.406207 -0.000000 -0.719007 1.871870 -2.426950 16.377300 -0.000001 -0.000001 -1.425090 6.132250 -3.885240 6.456720 -0.000001 -0.000000 6.255030 6.765170 1.551540 12.994200 -0.242716 4.980390 -93.485700 8.750900 -68.180900 5.348090 -0.000007 -0.000001 -62.272600 0.780354 4.310510 24.328600 0.000019 0.000005 13.458800 29.358800 -26.002700 22.291600 -0.000001 0.000005 -7.945370 5.139320 4.199200 12.994500 -0.242716 -4.980390 88.828500 4.103030 -74.048000 -5.348130 -0.000001 -0.000004 -72.307300 4.020010 0.613700 -24.328900 0.000322 -0.000009 -0.001601 18.463000 0.000083 -22.291500 -0.000108 -0.000004 7.349550 4.844940 10.373900 -2.192480 -6.469440 -0.000000 172.495000 -4.780620 -9.446420 39.081100 -0.000007 -0.000012 0.446527 -0.695699 32.695000 40.985400 -0.000006 -0.000013 6.179990 6.880800 -74.400600 11.754300 -0.000000 0.000003 0.000481 0.159099 -10.124200 -2.192510 6.469440 -0.000001 171.459000 -3.434090 161.607000 -39.081100 -0.002282 -0.040193 0.204899 -0.068237 71.318000 -40.985400 0.000008 0.000006 -2.595220 -2.725180 -37.327300 -11.754300 -0.000006 -0.000006 0.000841 0.152065 -10.406300
0.000000 0.000000 0.000000 0.000000 0.000000 -0.000000 -4.790280 91.423000 24.910800 -92.265500 6.784120 -175.003000 15.735700 0.000005 -0.000001 86.952200 86.565100 -87.147600 8.984550 -0.406207 -0.000000 -0.906601 -0.350407 -0.393462 16.377300 -0.000001 -0.000001 -0.570075 5.935780 -4.540460 6.456720 -0.000001 -0.000000 7.300670 7.291660 1.778910 12.994200 -0.242716 4.980390 -92.945400 7.860280 -69.383800 5.348090 -0.000007 -0.000001 -63.232200 6.346480 -1.339380 24.328600 0.000019 0.000005 21.094100 31.749200 -36.243700 22.291600 -0.000001 0.000005 -6.410200 5.214280 2.356950 12.994500 -0.242716 -4.980390 89.106900 3.016660 -73.498500 -5.348130 -0.000001 -0.000004 -68.483700 -4.097880 7.703920 -24.328900 0.000322 -0.000009 -0.001613 18.497500 0.000083 -22.291500 -0.000108 -0.000004 10.764800 4.665750 13.768900 -2.192480 -6.469440 -0.000000 175.362000 -3.297000 -2.929770 39.081100 -0.000007 -0.000012 0.295932 -0.604086 26.100100 40.985400 -0.000006 -0.000013 6.260940 8.676070 -73.840000 11.754300 -0.000000 0.000003 0.000552 0.157742 -10.179300 -2.192510 6.469440 -0.000001 175.374000 -0.607779 158.153000 -39.081100 -0.002282 -0.040193 0.176811 -0.068047 68.605000 -40.985400 0.000008 0.000006 -3.126410 -4.774810 -43.521400 -11.754300 -0.000006 -0.000006 0.000387 0.160876 -10.048600
0.000000 0.000000 0.000000 0.000000 0.000000 -0.000000 -4.118270 92.308300 21.107800 -90.459300 3.572440 -175.394000 15.735700 0.000005 -0.000001 69.704900 86.342700 -69.123800 8.984550 -0.406207 -0.000000 -0.892240 -2.580450 1.141760 16.377300 -0.000001 -0.000001 -0.184505 5.570870 -4.902440 6.456720 -0.000001 -0.000000 7.708430 7.720210 2.053670 12.994200 -0.242716 4.980390 -92.435400 6.971050 -70.689300 5.348090 -0.000007 -0.000001 -62.967400 8.455350 -7.348440 24.328600 0.000019 0.000005 21.930600 26.402200 -42.168000 22.291600 -0.000001 0.000005 -1.717500 5.117160 4.667510 12.994500 -0.242716 -4.980390 89.298000 2.252850 -72.685700 -5.348130 -0.000001 -0.000004 -63.299700 -7.192600 15.197700 -24.328900 0.000322 -0.000009 0.334971 15.632300 -1.251310 -22.291500 -0.000108 -0.000004 7.934410 4.772750 11.780500 -2.192480 -6.469440 -0.000000 178.391000 -2.574910 2.634420 39.081100 -0.000007 -0.000012 0.063380 -0.179420 19.455700 40.985400 -0.000006 -0.000013 1.801630 12.717000 -70.636300 11.754300 -0.000000 0.000003 0.000611 0.156610 -10.225300 -2.192510 6.469440 -0.000001 178.465000 2.497320 155.790000 -39.081100 -0.002282 -0.040193 0.138100 -0.070484 62.416200 -40.985400 0.000008 0.000006 -3.319080 -6.147960 -50.485900 -11.754300 -0.000006 -0.000006 0.000918 0.150446 -10.472000
0.000000 0.000000 0.000000 0.000000 0.000000 -0.000000 -3.660110 92.737700 17.443200 -89.804500 0.960711 -175.735000 15.735700 0.000005 -0.000001 57.956800 85.972200 -57.086100 8.984550 -0.406207 -0.000000 -0.903966 -4.338990 1.707050 16.377300 -0.000001 -0.000001 0.143252 5.231150 -4.733330 6.456720 -0.000001 -0.000000 7.683320 8.220360 2.313410 12.994200 -0.242716 4.980390 -92.053900 6.301880 -71.907700 5.348090 -0.000007 -0.000001 -61.983500 7.691860 -13.006400 24.328600 0.000019 0.000005 19.862700 19.754100 -46.914800 22.291600 -0.000001 0.000005 2.967920 5.015680 6.972530 12.994500 -0.242716 -4.980390 89.418600 1.755160 -71.667700 -5.348130 -0.000001 -0.000004 -59.014000 -5.992550 21.351200 -24.328900 0.000322 -0.000009 0.738544 11.791600 -3.617150 -22.291500 -0.000108 -0.000004 3.840230 5.031380 6.608030 -2.192480 -6.469440 -0.000000 -179.174000 -4.347800 7.765140 39.081100 -0.000007 -0.000012 -0.022420 0.098623 12.807200 40.985400 -0.000006 -0.000013 -3.698030 18.154900 -65.479500 11.754300 -0.000000 0.000003 0.078138 0.227525 -11.797300 -2.192510 6.469440 -0.000001 -179.995000 4.850700 154.464000 -39.081100 -0.002282 -0.040193 0.105696 -0.077577 52.869000 -40.985400 0.000008 0.000006 -4.392320 -7.488630 -55.087700 -11.754300 -0.000006 -0.000006 0.000852 0.151834 -10.415600
0.000000 0.000000 0.000000 0.000000 0.000000 -0.000000 -3.270260 92.646600 13.824200 -89.462200 -0.507723 -176.186000 15.735700 0.000005 -0.000001 50.317200 85.595000 -49.360500 8.984550 -0.406207 -0.000000 -0.937591 -5.696970 1.867160 16.377300 -0.000001 -0.000001 0.221160 5.165210 -4.208940 6.456720 -0.000001 -0.000000 7.566390 9.007240 2.791520 12.994200 -0.242716 4.980390 -91.755600 5.666270 -72.754400 5.348090 -0.000007 -0.000001 -61.893500 3.934280 -17.545900 24.328600 0.000019 0.000005 18.900900 14.971700 -52.971800 22.291600 -0.000001 0.000005 5.095670 4.992770 7.473750 12.994500 -0.242716 -4.980390 89.642600 1.056780 -71.315000 -5.348130 -0.000001 -0.000004 -56.908500 -3.071850 25.564000 -24.328900 0.000322 -0.000009 0.735837 9.660150 -4.382880 -22.291500 -0.000108 -0.000004 3.425690 5.177280 3.287870 -2.192480 -6.469440 -0.000000 -177.610000 -6.224940 11.154200 39.081100 -0.000007 -0.000012 -0.015376 0.088794 9.823680 40.985400 -0.000006 -0.000013 -3.735250 21.534900 -64.259700 11.754300 -0.000000 0.000003 0.805154 1.206790 -13.221200 -2.192510 6.469440 -0.000001 -178.720000 6.537320 154.272000 -39.081100 -0.002282 -0.040193 0.062860 -0.069931 40.431700 -40.985400 0.000008 0.000006 -4.427870 -8.526940 -57.540500 -11.754300 -0.000006 -0.000006 0.000924 0.150312 -10.477400
0.000000 0.000000 0.000000 0.000000 0.000000 -0.000000 -2.969570 92.067300 10.054400 -89.423400 -0.950394 -176.231000 15.735700 0.000005 -0.000001 47.447200 85.153100 -46.531000 8.984550 -0.406207 -0.000000 -0.569613 -6.620910 1.799970 16.377300 -0.000001 -0.000001 -0.133841 5.296420 -3.513930 6.456720 -0.000001 -0.000000 7.452300 9.924630 3.224920 12.994200 -0.242716 4.980390 -91.508200 5.045490 -73.333900 5.348090 -0.000007 -0.000001 -62.481600 -0.252080 -21.344800 24.328600 0.000019 0.000005 17.978800 11.223300 -59.051500 22.291600 -0.000001 0.000005 6.759300 5.019020 6.919400 12.994500 -0.242716 -4.980390 90.024100 -0.072317 -71.538000 -5.348130 -0.000001 -0.000004 -55.039600 -3.361170 27.904900 -24.328900 0.000322 -0.000009 0.820238 12.465200 -3.802250 -22.291500 -0.000108 -0.000004 6.214960 5.144460 4.043970 -2.192480 -6.469440 -0.000000 -177.212000 -5.612480 13.639100 39.081100 -0.000007 -0.000012 -0.013928 0.080055 9.869290 40.985400 -0.000006 -0.000013 -3.077580 21.315100 -65.620800 11.754300 -0.000000 0.000003 0.853300 1.211140 -14.167100 -2.192510 6.469440 -0.000001 -177.908000 7.119080 155.423000 -39.081100 -0.002282 -0.040193 0.032148 -0.055880 27.299000 -40.985400 0.000008 0.000006 -4.231870 -7.486920 -58.675200 -11.754300 -0.000006 -0.000006 0.000549 0.157853 -10.171300
0.000000 0.000000 0.000000 0.000000 0.000000 -0.000000 -2.752160 91.142300 6.025290 -89.769400 -1.197620 -175.906000 15.735700 0.000005 -0.000001 47.128600 84.743300 -46.434900 8.984550 -0.406207 -0.000000 -0.011856 -7.198190 1.387170 16.377300 -0.000001 -0.000001 -0.393872 5.273750 -2.711140 6.456720 -0.000001 -0.000000 7.012400 10.425800 3.604770 12.994200 -0.242716 4.980390 -91.339300 4.605430 -73.766600 5.348090 -0.000007 -0.000001 -63.767100 -3.827970 -24.762700 24.328600 0.000019 0.000005 15.951900 8.193180 -63.505500 22.291600 -0.000001 0.000005 9.599960 5.138860 4.243060 12.994500 -0.242716 -4.980390 90.201600 -0.623756 -72.089700 -5.348130 -0.000001 -0.000004 -52.201500 -6.395810 29.381900 -24.328900 0.000322 -0.000009 0.691921 17.169400 -2.349190 -22.291500 -0.000108 -0.000004 11.335400 4.977670 7.725770 -2.192480 -6.469440 -0.000000 -177.364000 -4.663790 15.488100 39.081100 -0.000007 -0.000012 -0.017820 0.082100 12.246000 40.985400 -0.000006 -0.000013 -2.434800 20.738100 -67.758400 11.754300 -0.000000 0.000003 0.910473 1.204010 -15.429600 -2.192510 6.469440 -0.000001 -178.099000 6.528160 156.585000 -39.081100 -0.002282 -0.040193 0.022103 -0.058756 17.722600 -40.985400 0.000008 0.000006 -5.373520 -4.721930 -60.097700 -11.754300 -0.000006 -0.000006 0.000586 0.157152 -10.199800
0.000000 0.000000 0.000000 0.000000 0.000000 -0.000000 -2.389730 90.057400 1.535200 -89.747100 -1.163060 -175.921000 15.735700 0.000005 -0.000001 47.971600 84.727300 -47.328400 8.984550 -0.406207 -0.000000 0.113034 -7.101290 1.293760 16.377300 -0.000001 -0.000001 -0.560968 5.040120 -2.289350 6.456720 -0.000001 -0.000000 6.730940 10.220800 3.921620 12.994200 -0.242716 4.980390 -91.168700 4.093410 -74.050200 5.348090 -0.000007 -0.000001 -66.151100 -5.523820 -27.110000 24.328600 0.000019 0.000005 13.561800 6.125620 -66.139200 22.291600 -0.000001 0.000005 14.024200 5.237770 1.770590 12.994500 -0.242716 -4.980390 90.100300 -0.317878 -72.482400 -5.348130 -0.000001 -0.000004 -49.426400 -8.940200 30.413800 -24.328900 0.000322 -0.000009 0.256577 19.786100 -0.761060 -22.291500 -0.000108 -0.000004 17.505200 4.751350 12.156500 -2.192480 -6.469440 -0.000000 -176.453000 -5.048560 16.876800 39.081100 -0.000007 -0.000012 -0.028596 0.103576 15.433700 40.985400 -0.000006 -0.000013 -1.824950 21.807600 -69.421600 11.754300 -0.000000 0.000003 0.132707 0.144049 -17.175200 -2.192510 6.469440 -0.000001 -178.016000 5.378920 155.976000 -39.081100 -0.002282 -0.040193 0.016311 -0.048572 14.962800 -40.985400 0.000008 0.000006 -6.713870 -2.343570 -62.621000 -11.754300 -0.000006 -0.000006 0.000829 0.152305 -10.396500
